<?xml version="1.0" encoding="UTF-8" standalone="no"?>
<!-- Created with Inkscape (http://www.inkscape.org/) -->

<svg
   version="1.1"
   id="svg2"
   width="183"
   height="146"
   viewBox="0 0 183 146"
   sodipodi:docname="boot_5x4.svg"
   inkscape:version="1.1.1 (3bf5ae0d25, 2021-09-20)"
   inkscape:export-filename="/home/vlad/apple-mac-plymouth/apple-mac-plymouth/boot_5x4.png"
   inkscape:export-xdpi="96"
   inkscape:export-ydpi="96"
   xmlns:inkscape="http://www.inkscape.org/namespaces/inkscape"
   xmlns:sodipodi="http://sodipodi.sourceforge.net/DTD/sodipodi-0.dtd"
   xmlns="http://www.w3.org/2000/svg"
   xmlns:svg="http://www.w3.org/2000/svg">
  <defs
     id="defs6" />
  <sodipodi:namedview
     id="namedview4"
     pagecolor="#505050"
     bordercolor="#ffffff"
     borderopacity="1"
     inkscape:pageshadow="0"
     inkscape:pageopacity="0"
     inkscape:pagecheckerboard="1"
     showgrid="false"
     inkscape:zoom="3.384011"
     inkscape:cx="154.69808"
     inkscape:cy="82.151033"
     inkscape:current-layer="g8" />
  <g
     inkscape:groupmode="layer"
     inkscape:label="Image"
     id="g8">
    <g
       transform="matrix(11.496163,0,0,11.496287,18.501573,-3122.3773)"
       id="g917">
      <g
         transform="matrix(0.13636,0,0,0.13636,-3.0617e-8,243.8)"
         id="g913">
        <path
           d="m 93.133,250.43 c -2e-6,12.86 0,46.567 0,46.567 L 0,203.864 c 0,0 35.294,-1e-5 46.567,-1e-5 25.718,0 46.567,20.849 46.567,46.567 z"
           fill="#4caf50"
           id="path909" />
        <path
           d="m 2.2453e-7,250.43 c 2e-6,-12.86 0,-46.567 0,-46.567 L 93.133,296.996 c 0,0 -35.294,1e-5 -46.567,1e-5 -25.718,0 -46.56699977547,-20.849 -46.56699977547,-46.567 z"
           fill="#388e3c"
           id="path911" />
      </g>
      <path
         d="m 2.3091,274.2 v 5.1954 c 0,1.2684 1.0407,2.3091 2.3091,2.3091 h 3.4636 c 1.2684,0 2.3091,-1.0406 2.3091,-2.3091 v -2.8864 c 0,-0.94962 -0.7822,-1.7318 -1.7318,-1.7318 -0.44363,0 -0.84667,0.17536 -1.1545,0.4541 -0.30787,-0.27874 -0.71091,-0.4541 -1.1545,-0.4541 -0.94962,0 -1.7318,0.7822 -1.7318,1.7318 v 2.8864 h 1.1545 v -2.8864 c 0,-0.32566 0.25162,-0.57727 0.57727,-0.57727 0.32565,0 0.57727,0.25161 0.57727,0.57727 v 2.8864 h 1.1545 v -2.8864 c 0,-0.32566 0.25162,-0.57727 0.57727,-0.57727 0.32565,0 0.57727,0.25161 0.57727,0.57727 v 2.8864 c 0,0.64448 -0.51007,1.1546 -1.1545,1.1546 h -3.4636 c -0.64448,0 -1.1545,-0.51007 -1.1545,-1.1546 V 274.2 Z"
         color="#000000"
         color-rendering="auto"
         dominant-baseline="auto"
         fill="#fafafa"
         image-rendering="auto"
         shape-rendering="auto"
         solid-color="#000000"
         style="font-variant-ligatures:normal;font-variant-position:normal;font-variant-caps:normal;font-variant-numeric:normal;font-variant-alternates:normal;font-feature-settings:normal;text-indent:0;text-decoration-line:none;text-decoration-style:solid;text-decoration-color:#000000;text-transform:none;text-orientation:mixed;white-space:normal;shape-padding:0;isolation:auto;mix-blend-mode:normal"
         id="path915" />
    </g>
  </g>
</svg>
